<?xml version="1.0" encoding="utf-8"?>
<!-- Generator: Adobe Illustrator 23.0.3, SVG Export Plug-In . SVG Version: 6.00 Build 0)  -->
<svg version="1.1" id="Capa_1" xmlns="http://www.w3.org/2000/svg" xmlns:xlink="http://www.w3.org/1999/xlink" x="0px" y="0px"
	 viewBox="0 0 500 500" style="enable-background:new 0 0 500 500;" xml:space="preserve">
<style type="text/css">
	.st0{fill:#00A69C;}
	.st1{fill:none;stroke:#231F20;stroke-miterlimit:10;}
	.st2{fill:none;stroke:#93D4D0;stroke-miterlimit:10;}
	.st3{fill:#231F20;}
	.st4{enable-background:new    ;}
</style>
<g>
	<g>
		<rect x="359.93" y="68.81" class="st0" width="3.77" height="296.98"/>
	</g>
	<g>
		<path class="st1" d="M361.82,184.85"/>
	</g>
	<g>
		<path class="st1" d="M361.82,34.55"/>
	</g>
	<g>
		<path class="st2" d="M451.8,34.55"/>
	</g>
	<g>
		<path class="st3" d="M407.36,396.37H0V30l181.85,181.85l49.4-49.4c0,0,0.59-0.64,0.57-0.7c-3.92-10.28-6.32-22.56-6.32-37.22
			c0-47.44,25.03-69.92,46.03-80.42c22.63-11.32,44.9-11.45,45.83-11.45h44.44v3.77h-44.44c-0.22,0-22.42,0.15-44.27,11.11
			c-29.09,14.59-43.83,40.5-43.83,76.99s14.75,62.4,43.83,76.99c21.84,10.96,44.04,11.11,44.27,11.11h89.98
			c0.94,0,23.2,0.13,45.83,11.45c21,10.5,46.03,32.98,46.03,80.42s-25.03,69.92-46.03,80.42
			C430.56,396.24,408.3,396.37,407.36,396.37z M3.77,392.6h403.59c0.22,0,22.42-0.15,44.27-11.11c29.09-14.6,43.83-40.5,43.83-76.99
			s-14.75-62.4-43.83-76.99c-21.85-10.96-44.04-11.11-44.27-11.11h-89.98c-0.94,0-23.2-0.13-45.83-11.45
			c-13.68-6.84-29.06-18.75-38.13-39.33l-51.56,51.56L3.77,39.1V392.6z"/>
	</g>
	<g>
		<rect y="431.83" class="st0" width="499.23" height="2.51"/>
	</g>
	<g>
		<rect x="218.49" y="433.09" class="st0" width="2.26" height="45.59"/>
	</g>
	<g class="st4">
		<path class="st3" d="M25.03,468.36L25,452.68l-7.67,13.25h-0.65l-7.67-13.2v15.63H7.7v-18.33h1.13l8.2,14.17l8.2-14.17h1.1
			l0.03,18.33H25.03z"/>
		<path class="st3" d="M31.89,450.32c0-0.58,0.47-1.07,1.07-1.07s1.07,0.47,1.07,1.05c0,0.6-0.47,1.07-1.07,1.07
			S31.89,450.9,31.89,450.32z M32.31,454.7h1.31v13.67h-1.31V454.7z"/>
		<path class="st3" d="M37.65,461.53c0-4.08,2.91-6.94,6.91-6.94c2.17,0,4.06,0.84,5.18,2.51l-0.97,0.71
			c-0.99-1.39-2.51-2.04-4.22-2.04c-3.22,0-5.58,2.3-5.58,5.76s2.36,5.76,5.58,5.76c1.7,0,3.22-0.66,4.22-2.04l0.97,0.71
			c-1.13,1.65-3.01,2.51-5.18,2.51C40.56,468.47,37.65,465.59,37.65,461.53z"/>
		<path class="st3" d="M65.67,460.38v7.99h-1.31v-7.88c0-3.09-1.65-4.71-4.43-4.71c-3.22,0-5.18,2.07-5.18,5.32v7.28h-1.31v-19.43
			h1.31v8.61c0.94-1.86,2.83-2.96,5.37-2.96C63.45,454.59,65.67,456.55,65.67,460.38z"/>
		<path class="st3" d="M82.64,461.84H70.88c0.13,3.25,2.51,5.45,5.79,5.45c1.73,0,3.33-0.63,4.37-1.91l0.76,0.86
			c-1.2,1.47-3.09,2.23-5.16,2.23c-4.14,0-7.04-2.88-7.04-6.94s2.8-6.94,6.55-6.94c3.74,0,6.52,2.83,6.52,6.89
			C82.67,461.58,82.64,461.71,82.64,461.84z M70.91,460.82h10.47c-0.18-2.96-2.33-5.08-5.24-5.08
			C73.24,455.74,71.12,457.84,70.91,460.82z"/>
		<path class="st3" d="M86.73,448.93h1.31v19.43h-1.31V448.93z"/>
		<path class="st3" d="M93.56,448.93h1.31v19.43h-1.31V448.93z"/>
		<path class="st3" d="M111.94,461.84h-11.76c0.13,3.25,2.51,5.45,5.79,5.45c1.73,0,3.33-0.63,4.37-1.91l0.76,0.86
			c-1.2,1.47-3.09,2.23-5.16,2.23c-4.14,0-7.04-2.88-7.04-6.94s2.8-6.94,6.55-6.94c3.74,0,6.52,2.83,6.52,6.89
			C111.97,461.58,111.94,461.71,111.94,461.84z M100.21,460.82h10.47c-0.18-2.96-2.33-5.08-5.24-5.08
			C102.54,455.74,100.42,457.84,100.21,460.82z"/>
	</g>
	<g class="st4">
		<path class="st3" d="M122.81,466.01l0.6-1c1.26,1.31,3.59,2.3,6.05,2.3c3.67,0,5.29-1.6,5.29-3.59c0-5.5-11.44-2.2-11.44-8.96
			c0-2.59,1.99-4.87,6.49-4.87c2.02,0,4.11,0.63,5.52,1.65l-0.5,1.07c-1.52-1.05-3.38-1.54-5.03-1.54c-3.56,0-5.16,1.65-5.16,3.67
			c0,5.5,11.44,2.25,11.44,8.9c0,2.59-2.07,4.84-6.6,4.84C126.76,468.49,124.14,467.47,122.81,466.01z"/>
		<path class="st3" d="M151.74,461.84h-11.76c0.13,3.25,2.51,5.45,5.79,5.45c1.73,0,3.33-0.63,4.37-1.91l0.76,0.86
			c-1.2,1.47-3.09,2.23-5.16,2.23c-4.14,0-7.04-2.88-7.04-6.94s2.8-6.94,6.55-6.94c3.74,0,6.52,2.83,6.52,6.89
			C151.77,461.58,151.74,461.71,151.74,461.84z M140.01,460.82h10.47c-0.18-2.96-2.33-5.08-5.24-5.08
			C142.34,455.74,140.22,457.84,140.01,460.82z"/>
		<path class="st3" d="M153.81,466.71l0.6-1.05c1.05,0.89,2.91,1.65,4.92,1.65c2.88,0,4.03-1.02,4.03-2.57
			c0-3.98-9.06-1.05-9.06-6.42c0-2.07,1.73-3.74,5.18-3.74c1.73,0,3.61,0.52,4.69,1.33l-0.6,1.05c-1.15-0.84-2.64-1.23-4.11-1.23
			c-2.67,0-3.85,1.1-3.85,2.57c0,4.11,9.06,1.2,9.06,6.42c0,2.23-1.91,3.74-5.39,3.74C157.03,468.47,154.89,467.71,153.81,466.71z"
			/>
		<path class="st3" d="M175.13,467.5c-0.68,0.66-1.78,0.97-2.8,0.97c-2.41,0-3.72-1.41-3.72-3.72v-8.93h-2.51v-1.13h2.51v-2.99h1.31
			v2.99h4.35v1.13h-4.35v8.8c0,1.75,0.86,2.72,2.54,2.72c0.81,0,1.57-0.26,2.12-0.76L175.13,467.5z"/>
		<path class="st3" d="M178.35,450.32c0-0.58,0.47-1.07,1.07-1.07c0.6,0,1.07,0.47,1.07,1.05c0,0.6-0.47,1.07-1.07,1.07
			C178.82,451.37,178.35,450.9,178.35,450.32z M178.77,454.7h1.31v13.67h-1.31V454.7z"/>
		<path class="st3" d="M197.15,461.84h-11.76c0.13,3.25,2.51,5.45,5.79,5.45c1.73,0,3.33-0.63,4.37-1.91l0.76,0.86
			c-1.2,1.47-3.09,2.23-5.16,2.23c-4.14,0-7.04-2.88-7.04-6.94s2.8-6.94,6.55-6.94c3.74,0,6.52,2.83,6.52,6.89
			C197.18,461.58,197.15,461.71,197.15,461.84z M185.42,460.82h10.47c-0.18-2.96-2.33-5.08-5.24-5.08
			C187.75,455.74,185.63,457.84,185.42,460.82z"/>
		<path class="st3" d="M207.7,454.59v1.28c-0.1,0-0.21-0.03-0.31-0.03c-3.04,0-4.84,2.02-4.84,5.39v7.12h-1.31V454.7h1.26v2.98
			C203.33,455.69,205.14,454.59,207.7,454.59z"/>
	</g>
	<g class="st4">
		<path class="st3" d="M236.28,450.03h1.34v18.33h-1.34V450.03z"/>
		<path class="st3" d="M243.59,448.93h1.31v19.43h-1.31V448.93z"/>
		<path class="st3" d="M250.42,448.93h1.31v19.43h-1.31V448.93z"/>
		<path class="st3" d="M269.22,454.7v13.67h-1.26v-2.93c-0.89,1.91-2.75,3.04-5.16,3.04c-3.48,0-5.71-1.96-5.71-5.79v-7.99h1.31
			v7.88c0,3.09,1.65,4.71,4.5,4.71c3.09,0,5-2.07,5-5.32v-7.28H269.22z"/>
		<path class="st3" d="M272.76,466.71l0.6-1.05c1.05,0.89,2.91,1.65,4.92,1.65c2.88,0,4.03-1.02,4.03-2.57
			c0-3.98-9.06-1.05-9.06-6.42c0-2.07,1.73-3.74,5.18-3.74c1.73,0,3.61,0.52,4.69,1.33l-0.6,1.05c-1.15-0.84-2.64-1.23-4.11-1.23
			c-2.67,0-3.85,1.1-3.85,2.57c0,4.11,9.06,1.2,9.06,6.42c0,2.23-1.91,3.74-5.39,3.74C275.98,468.47,273.83,467.71,272.76,466.71z"
			/>
		<path class="st3" d="M294.07,467.5c-0.68,0.66-1.78,0.97-2.8,0.97c-2.41,0-3.72-1.41-3.72-3.72v-8.93h-2.51v-1.13h2.51v-2.99h1.31
			v2.99h4.35v1.13h-4.35v8.8c0,1.75,0.86,2.72,2.54,2.72c0.81,0,1.57-0.26,2.12-0.76L294.07,467.5z"/>
		<path class="st3" d="M304.18,454.59v1.28c-0.11,0-0.21-0.03-0.31-0.03c-3.04,0-4.84,2.02-4.84,5.39v7.12h-1.31V454.7h1.26v2.98
			C299.81,455.69,301.61,454.59,304.18,454.59z"/>
		<path class="st3" d="M317.67,459.7v8.67h-1.26v-2.44c-0.86,1.57-2.54,2.54-4.92,2.54c-3.06,0-4.92-1.57-4.92-3.9
			c0-2.07,1.31-3.82,5.11-3.82h4.69v-1.1c0-2.54-1.39-3.9-4.06-3.9c-1.89,0-3.59,0.71-4.71,1.73l-0.65-0.94
			c1.36-1.21,3.35-1.94,5.47-1.94C315.78,454.59,317.67,456.32,317.67,459.7z M316.36,464.33v-2.57h-4.66
			c-2.83,0-3.82,1.18-3.82,2.75c0,1.78,1.39,2.88,3.8,2.88C313.97,467.39,315.57,466.29,316.36,464.33z"/>
		<path class="st3" d="M329.84,467.5c-0.68,0.66-1.78,0.97-2.8,0.97c-2.41,0-3.72-1.41-3.72-3.72v-8.93h-2.51v-1.13h2.51v-2.99h1.31
			v2.99h4.35v1.13h-4.35v8.8c0,1.75,0.86,2.72,2.54,2.72c0.81,0,1.57-0.26,2.12-0.76L329.84,467.5z"/>
		<path class="st3" d="M333.06,450.32c0-0.58,0.47-1.07,1.07-1.07c0.6,0,1.07,0.47,1.07,1.05c0,0.6-0.47,1.07-1.07,1.07
			C333.54,451.37,333.06,450.9,333.06,450.32z M333.48,454.7h1.31v13.67h-1.31V454.7z"/>
		<path class="st3" d="M338.83,461.53c0-4.06,2.91-6.94,6.83-6.94s6.83,2.88,6.83,6.94s-2.91,6.94-6.83,6.94
			S338.83,465.59,338.83,461.53z M351.16,461.53c0-3.43-2.36-5.76-5.5-5.76c-3.14,0-5.5,2.33-5.5,5.76s2.36,5.76,5.5,5.76
			C348.8,467.29,351.16,464.96,351.16,461.53z"/>
		<path class="st3" d="M368.78,460.38v7.99h-1.31v-7.88c0-3.09-1.65-4.71-4.43-4.71c-3.22,0-5.18,2.07-5.18,5.32v7.28h-1.31V454.7
			h1.26v2.96c0.92-1.91,2.83-3.06,5.42-3.06C366.56,454.59,368.78,456.55,368.78,460.38z"/>
		<path class="st3" d="M394.21,468.63l-2.64-2.78c-1.49,1.75-3.59,2.64-6.1,2.64c-3.48,0-5.97-1.86-5.97-4.58
			c0-2.12,1.26-3.72,4.74-5.76l-0.03-0.05c-1.86-1.94-2.36-3.01-2.36-4.43c0-2.25,1.68-3.74,4.35-3.74c2.46,0,4.03,1.31,4.03,3.48
			c0,1.81-1.07,3.06-4.19,4.9l5.42,5.73c0.58-1.02,1.02-2.25,1.31-3.72l1.07,0.34c-0.34,1.68-0.86,3.09-1.57,4.22l2.72,2.88
			L394.21,468.63z M390.78,465.01l-5.79-6.1c-3.25,1.91-4.22,3.14-4.22,4.9c0,2.15,1.94,3.59,4.74,3.59
			C387.69,467.39,389.49,466.61,390.78,465.01z M385.28,457.52c2.88-1.68,3.8-2.64,3.8-4.08c0-1.49-1.02-2.49-2.88-2.49
			c-1.96,0-3.12,1.1-3.12,2.72C383.08,454.83,383.52,455.66,385.28,457.52z"/>
		<path class="st3" d="M405.21,450.03h7.25c5.81,0,9.74,3.82,9.74,9.17c0,5.34-3.93,9.16-9.74,9.16h-7.25V450.03z M412.36,467.16
			c5.18,0,8.51-3.3,8.51-7.96c0-4.66-3.33-7.96-8.51-7.96h-5.81v15.92H412.36z"/>
		<path class="st3" d="M437.96,461.84h-11.76c0.13,3.25,2.51,5.45,5.79,5.45c1.73,0,3.33-0.63,4.37-1.91l0.76,0.86
			c-1.2,1.47-3.09,2.23-5.16,2.23c-4.14,0-7.04-2.88-7.04-6.94s2.8-6.94,6.55-6.94s6.52,2.83,6.52,6.89
			C437.99,461.58,437.96,461.71,437.96,461.84z M426.23,460.82h10.47c-0.18-2.96-2.33-5.08-5.24-5.08S426.44,457.84,426.23,460.82z"
			/>
		<path class="st3" d="M440.04,466.71l0.6-1.05c1.05,0.89,2.91,1.65,4.92,1.65c2.88,0,4.03-1.02,4.03-2.57
			c0-3.98-9.06-1.05-9.06-6.42c0-2.07,1.73-3.74,5.18-3.74c1.73,0,3.61,0.52,4.69,1.33l-0.6,1.05c-1.15-0.84-2.64-1.23-4.11-1.23
			c-2.67,0-3.85,1.1-3.85,2.57c0,4.11,9.06,1.2,9.06,6.42c0,2.23-1.91,3.74-5.39,3.74C443.26,468.47,441.11,467.71,440.04,466.71z"
			/>
		<path class="st3" d="M454.15,450.32c0-0.58,0.47-1.07,1.07-1.07c0.6,0,1.07,0.47,1.07,1.05c0,0.6-0.47,1.07-1.07,1.07
			C454.62,451.37,454.15,450.9,454.15,450.32z M454.57,454.7h1.31v13.67h-1.31V454.7z"/>
		<path class="st3" d="M473.71,454.7v12.2c0,4.58-2.23,6.65-6.63,6.65c-2.49,0-4.87-0.79-6.26-2.17l0.71-0.99
			c1.36,1.26,3.33,1.99,5.52,1.99c3.64,0,5.34-1.68,5.34-5.32v-2.3c-1.13,1.99-3.22,3.12-5.68,3.12c-3.88,0-6.81-2.75-6.81-6.65
			s2.93-6.62,6.81-6.62c2.51,0,4.63,1.15,5.73,3.19v-3.09H473.71z M472.43,461.21c0-3.22-2.36-5.45-5.6-5.45
			c-3.22,0-5.58,2.23-5.58,5.45s2.36,5.47,5.58,5.47C470.07,466.69,472.43,464.44,472.43,461.21z"/>
		<path class="st3" d="M491.49,460.38v7.99h-1.31v-7.88c0-3.09-1.65-4.71-4.42-4.71c-3.22,0-5.18,2.07-5.18,5.32v7.28h-1.31V454.7
			h1.26v2.96c0.92-1.91,2.83-3.06,5.42-3.06C489.26,454.59,491.49,456.55,491.49,460.38z"/>
	</g>
</g>
</svg>
